<?xml version="1.0" encoding="UTF-8"?>
<svg id="Layer_1" data-name="Layer 1" xmlns="http://www.w3.org/2000/svg" version="1.1" viewBox="0 0 256 256">
  <defs>
    <style>
      .cls-1 {
        fill: #ff4438;
      }

      .cls-1, .cls-2 {
        stroke-width: 0px;
      }

      .cls-2 {
        fill: #fff;
      }
    </style>
  </defs>
  <path class="cls-1" d="M32.4,248.9c0-4.4-3.8-6.7-9-8.5-7.1-2.5-17-4-23.4-8.5v8.8c.6,2.2,1.6,4.3,2.9,6.3,2.4,3.9,6,7.2,10.3,9h14.9c2.7-1.4,4.3-3.8,4.3-7.1Z"/>
  <path class="cls-1" d="M0,0v205.5c5-3.6,12.3-5.1,19.9-5.1,11.2,0,20.7,3,27.3,6.9l-6.4,12.3-2.4-.8c-1.9-8.3-7.3-15.4-16.6-15.6-6.2-.1-10.9,3.5-10.9,9,.1,14,39.5,6.1,38.2,29.2-.4,6.4-4.2,11.4-10.1,14.6h22.8-22.8s0,0-.1,0h34.2c0,0,183,0,183,0V0H0Z"/>
  <path class="cls-2" d="M119.8,10.2c-4.6,0-8.4,3.8-8.4,8.4v47.2c0,4.6,3.8,8.4,8.4,8.4h47.2c4.6,0,8.4-3.8,8.4-8.4V18.6c0-4.6-3.8-8.4-8.4-8.4h-47.2ZM190.4,10.2c-4.6,0-8.4,3.8-8.4,8.4v47.2c0,4.6,3.8,8.4,8.4,8.4h47.2c4.6,0,8.4-3.8,8.4-8.4V18.6c0-4.6-3.8-8.4-8.4-8.4h-47.2ZM119.8,14.9h47.2c2.1,0,3.8,1.6,3.8,3.8v20.7l-5.1-6c-1.4-1.7-3.5-2.7-5.5-2.7-2.1,0-4.2,1-5.6,2.8l-13.6,18.3-8.1-9.7c-1.4-1.6-3.3-2.5-5.2-2.5s-3.9.9-5.2,2.5l-6.3,7.5v-30.9c0-2.1,1.6-3.8,3.8-3.8h0ZM190.4,14.9h47.2c2.1,0,3.8,1.6,3.8,3.8v47.2c0,2.1-1.6,3.8-3.8,3.8h-47.2c-2.1,0-3.8-1.6-3.8-3.8V18.6c0-2.1,1.6-3.8,3.8-3.8h0ZM205.2,26.8h0c-.4,0-.8,0-1.2.3-.4.2-.7.5-.9.9-.2.4-.3.8-.3,1.2v26.3c0,.6.2,1.1.6,1.5.4.4.9.7,1.4.8.5,0,1.1,0,1.6-.3l20.4-13.1h0c.7-.4,1.1-1.2,1.1-1.9s-.4-1.5-1.1-1.9l-20.4-13.1h0c-.4-.2-.8-.4-1.2-.4h0ZM207.5,33.3l13.8,8.9-13.8,8.9v-17.8ZM160.1,35.3c.7,0,1.4.3,2,1.1l8.6,10.3v19.2c0,2.1-1.6,3.8-3.8,3.8h-33.6l24.9-33.4c.6-.7,1.1-1,1.8-1h0ZM127.5,44.2s0,0,.1,0c.5,0,1.1.2,1.7.9l8.8,10.5-10.4,14h-7.8c-2.1,0-3.8-1.6-3.8-3.8v-9l9.9-11.8c.5-.6,1.1-.8,1.6-.9h0ZM119.8,80.8c-4.6,0-8.4,3.8-8.4,8.4v47.2c0,4.6,3.8,8.4,8.4,8.4h47.2c4.6,0,8.4-3.8,8.4-8.4v-47.2c0-4.6-3.8-8.4-8.4-8.4h-47.2ZM190.4,80.8c-4.6,0-8.4,3.8-8.4,8.4v47.2c0,4.6,3.8,8.4,8.4,8.4h47.2c4.6,0,8.4-3.8,8.4-8.4v-47.2c0-4.6-3.8-8.4-8.4-8.4h-47.2ZM119.8,85.5h47.2c2.1,0,3.8,1.6,3.8,3.8v47.2c0,2.1-1.6,3.8-3.8,3.8h-47.2c-2.1,0-3.8-1.6-3.8-3.8v-47.2c0-2.1,1.6-3.8,3.8-3.8h0ZM190.4,85.5h47.2c2.1,0,3.8,1.6,3.8,3.8v47.2c0,2.1-1.6,3.8-3.8,3.8h-47.2c-2.1,0-3.8-1.6-3.8-3.8v-47.2c0-2.1,1.6-3.8,3.8-3.8h0ZM223.4,94.5c-2.3,0-4.6.9-6.3,2.6l-2.3,2.3-16,16c-.3.3-.5.7-.6,1.1l-2.5,11.8h0c-.2.8,0,1.6.6,2.1.6.6,1.3.8,2.1.6l11.8-2.5c.4,0,.8-.3,1.2-.6l15.9-15.9s0,0,0,0l2.2-2.2c3.5-3.5,3.5-9.1,0-12.6-1.7-1.7-4-2.6-6.3-2.6h0ZM127.2,96.6c-.6,0-1.2.2-1.6.7-.4.4-.7,1-.7,1.6,0,.6.2,1.2.7,1.6.4.4,1,.7,1.6.7h32.4,0c.6,0,1.2-.2,1.6-.7.4-.4.7-1,.7-1.6,0-.6-.2-1.2-.7-1.6-.4-.4-1-.7-1.6-.7h-32.4ZM223.4,99.1c1.1,0,2.2.4,3,1.3,1.7,1.7,1.7,4.3,0,6l-.7.7-6-6,.7-.7c.8-.8,1.9-1.3,3-1.3h0ZM216.5,104.3l6,6-13.8,13.8-7.6,1.6,1.6-7.6,13.8-13.8ZM127.2,110.5h0c-.6,0-1.2.2-1.6.7-.4.4-.7,1-.7,1.6,0,.6.2,1.2.7,1.6.4.4,1,.7,1.6.7h32.4,0c.6,0,1.2-.2,1.6-.7.4-.4.7-1,.7-1.6,0-.6-.2-1.2-.7-1.6-.4-.4-1-.7-1.6-.7h-32.4ZM127.2,124.4h0c-.6,0-1.2.2-1.6.7-.4.4-.7,1-.7,1.6,0,.6.2,1.2.7,1.6.4.4,1,.7,1.6.7h32.4,0c.6,0,1.2-.2,1.6-.7.4-.4.7-1,.7-1.6,0-.6-.2-1.2-.7-1.6-.4-.4-1-.7-1.6-.7h-32.4Z"/>
  <path class="cls-2" d="M128.7,195.6h-17.2v-44.8h17.1c4.6,0,8.6.9,12,2.7,3.4,1.8,6,4.4,7.8,7.7,1.8,3.3,2.7,7.4,2.7,12s-.9,8.7-2.7,12-4.4,5.9-7.7,7.7c-3.3,1.8-7.3,2.7-11.8,2.7ZM123.6,185.3h4.6c2.2,0,4.1-.4,5.7-1.1,1.6-.7,2.8-1.9,3.6-3.7.8-1.7,1.2-4.2,1.2-7.3s-.4-5.6-1.3-7.3c-.8-1.7-2.1-3-3.7-3.7-1.6-.7-3.6-1.1-5.9-1.1h-4.3v24.1ZM185.7,165.6c-.2-.8-.5-1.5-.9-2-.4-.6-.9-1.1-1.5-1.5-.6-.4-1.3-.7-2.1-.9-.8-.2-1.7-.3-2.6-.3-2,0-3.8.5-5.2,1.5s-2.5,2.4-3.3,4.2-1.1,4.1-1.1,6.6.4,4.9,1.1,6.7c.7,1.9,1.8,3.3,3.2,4.3,1.4,1,3.2,1.5,5.3,1.5s3.4-.3,4.6-.8,2.2-1.3,2.8-2.3c.6-1,.9-2.2.9-3.5l2.1.2h-10.2v-8.7h19.9v6.2c0,4.1-.9,7.6-2.6,10.5-1.7,2.9-4.1,5.1-7.1,6.6-3,1.5-6.5,2.3-10.4,2.3s-8.2-.9-11.5-2.8c-3.3-1.9-5.9-4.5-7.7-7.9-1.8-3.4-2.8-7.5-2.8-12.2s.6-7,1.7-9.8c1.1-2.9,2.7-5.3,4.7-7.3,2-2,4.3-3.5,7-4.5,2.6-1,5.5-1.5,8.5-1.5s5.1.4,7.4,1.1c2.3.8,4.3,1.8,6.1,3.2,1.8,1.4,3.2,3,4.3,4.9,1.1,1.9,1.7,3.9,2,6.2h-12.3ZM246,167.6h-12.3c0-1-.3-1.9-.7-2.8-.4-.8-.9-1.5-1.5-2.2-.6-.6-1.4-1.1-2.4-1.4-.9-.3-2-.5-3.1-.5-2,0-3.8.5-5.2,1.5-1.4,1-2.5,2.4-3.2,4.3-.7,1.9-1.1,4.1-1.1,6.7s.4,5,1.1,6.9c.7,1.8,1.8,3.2,3.2,4.2s3.1,1.4,5.1,1.4,2.1-.1,3-.4c.9-.3,1.7-.7,2.3-1.2s1.2-1.2,1.6-2c.4-.8.7-1.6.8-2.6h12.3c-.1,2-.7,3.9-1.6,5.9-.9,2-2.2,3.8-3.9,5.4-1.7,1.7-3.8,3-6.2,4s-5.4,1.5-8.6,1.5-7.8-.9-11.1-2.6-5.8-4.4-7.7-7.8c-1.9-3.4-2.8-7.6-2.8-12.6s1-9.2,2.9-12.6c1.9-3.4,4.5-6,7.8-7.8s6.9-2.6,10.9-2.6,5.4.4,7.8,1.2c2.4.8,4.5,1.9,6.3,3.4,1.8,1.5,3.2,3.3,4.3,5.5,1.1,2.2,1.8,4.6,2,7.4Z"/>
  <path class="cls-2" d="M68.9,212.4h-3.1v-10.5h3.3c1,0,1.9.2,2.6.6.7.4,1.3,1,1.6,1.8.4.8.6,1.7.6,2.8s-.2,2.1-.6,2.8c-.4.8-1,1.4-1.7,1.8-.7.4-1.6.6-2.7.6ZM66.7,211.5h2.1c.9,0,1.7-.2,2.3-.5.6-.4,1.1-.9,1.4-1.5.3-.7.5-1.5.5-2.4,0-.9-.2-1.7-.5-2.3-.3-.7-.7-1.2-1.3-1.5-.6-.3-1.3-.5-2.2-.5h-2.3v8.8ZM81,209.3v-4.9h.9v7.9h-.9v-1.3h0c-.2.4-.5.7-.9,1-.4.3-.9.4-1.5.4s-1-.1-1.3-.3c-.4-.2-.7-.5-.9-1-.2-.4-.3-1-.3-1.6v-5.1h.9v5.1c0,.6.2,1.1.5,1.5.4.4.8.6,1.4.6s.7,0,1-.3c.3-.2.6-.4.8-.8.2-.3.3-.7.3-1.2ZM84.3,212.4v-7.9h.9v1.2h0c.2-.4.4-.7.8-1,.4-.2.8-.4,1.3-.4s1,.1,1.3.4.6.6.8,1.1h0c.2-.4.5-.8.9-1,.4-.3.9-.4,1.5-.4s1.3.2,1.7.7c.4.5.6,1.1.6,2v5.3h-.9v-5.3c0-.6-.2-1.1-.5-1.4-.3-.3-.7-.5-1.3-.5s-1.1.2-1.4.6-.5.8-.5,1.4v5.2h-.9v-5.4c0-.5-.1-1-.4-1.3-.3-.3-.7-.5-1.3-.5s-.7,0-1,.3c-.3.2-.5.4-.7.7-.2.3-.2.7-.2,1.1v5.1h-.9ZM96.8,212.4v-7.9h.9v1.2h0c.2-.4.4-.7.8-1,.4-.2.8-.4,1.3-.4s1,.1,1.3.4.6.6.8,1.1h0c.2-.4.5-.8.9-1,.4-.3.9-.4,1.5-.4s1.3.2,1.7.7c.4.5.6,1.1.6,2v5.3h-.9v-5.3c0-.6-.2-1.1-.5-1.4-.3-.3-.7-.5-1.3-.5s-1.1.2-1.4.6-.5.8-.5,1.4v5.2h-.9v-5.4c0-.5-.1-1-.4-1.3-.3-.3-.7-.5-1.3-.5s-.7,0-1,.3c-.3.2-.5.4-.7.7-.2.3-.2.7-.2,1.1v5.1h-.9ZM109.5,215.3c-.2,0-.4,0-.5,0-.2,0-.3,0-.4-.1l.2-.8c.3,0,.6.1.8.1.2,0,.5-.1.6-.3.2-.2.4-.5.5-.9l.3-.8-2.9-8h1l2.3,6.7h0l2.3-6.7h1l-3.3,9.2c-.1.4-.3.7-.5,1-.2.3-.4.4-.7.6-.3.1-.6.2-.9.2ZM129.3,205.1h-1c0-.4-.2-.7-.4-1-.2-.3-.4-.6-.7-.8s-.6-.4-1-.5c-.4-.1-.7-.2-1.2-.2-.7,0-1.3.2-1.8.5-.5.3-1,.9-1.3,1.5-.3.7-.5,1.5-.5,2.5s.2,1.8.5,2.5.8,1.2,1.3,1.5c.5.3,1.2.5,1.8.5s.8,0,1.2-.2c.4-.1.7-.3,1-.5.3-.2.5-.5.7-.8.2-.3.3-.6.4-1h1c0,.5-.2.9-.5,1.4-.2.4-.5.8-.9,1.1s-.8.6-1.2.7-1,.3-1.5.3c-.9,0-1.7-.2-2.4-.7-.7-.4-1.2-1.1-1.6-1.9-.4-.8-.6-1.8-.6-2.9s.2-2.1.6-2.9c.4-.8.9-1.4,1.6-1.9.7-.4,1.5-.7,2.4-.7s1.1,0,1.5.3.9.4,1.2.7c.4.3.7.7.9,1.1.2.4.4.9.5,1.4ZM134.5,212.5c-.7,0-1.3-.2-1.8-.5-.5-.3-.9-.8-1.2-1.4-.3-.6-.4-1.3-.4-2.1s.1-1.5.4-2.1c.3-.6.7-1.1,1.2-1.4.5-.3,1.1-.5,1.8-.5s1.3.2,1.8.5c.5.3.9.8,1.2,1.4.3.6.4,1.3.4,2.1s-.1,1.5-.4,2.1c-.3.6-.7,1.1-1.2,1.4-.5.3-1.1.5-1.8.5ZM134.5,211.7c.5,0,1-.1,1.4-.4.4-.3.7-.7.9-1.2s.3-1,.3-1.6,0-1.1-.3-1.6c-.2-.5-.5-.9-.9-1.2-.4-.3-.8-.4-1.4-.4s-1,.1-1.4.4c-.4.3-.7.7-.9,1.2-.2.5-.3,1-.3,1.6s0,1.1.3,1.6.5.9.9,1.2c.4.3.8.4,1.4.4ZM140.9,207.4v4.9h-.9v-7.9h.9v1.2h0c.2-.4.5-.7.9-1s.9-.4,1.5-.4,1,.1,1.4.3.7.5.9,1,.3,1,.3,1.6v5.1h-.9v-5.1c0-.6-.2-1.2-.5-1.5-.4-.4-.8-.6-1.5-.6s-.8,0-1.1.3-.6.4-.8.8c-.2.3-.3.7-.3,1.2ZM151.5,204.5v.8h-3.8v-.8h3.8ZM148.9,202.6h.9v7.7c0,.3,0,.6.2.8.1.2.3.3.4.4.2,0,.4.1.6.1s.2,0,.3,0c0,0,.2,0,.2,0l.2.8c0,0-.2,0-.3,0s-.3,0-.5,0c-.3,0-.7,0-1-.2-.3-.1-.6-.4-.8-.7s-.3-.7-.3-1.1v-7.9ZM156.7,212.5c-.7,0-1.4-.2-1.9-.5-.5-.3-1-.8-1.2-1.4-.3-.6-.4-1.3-.4-2.1s.1-1.5.4-2.1.7-1.1,1.2-1.5c.5-.4,1.1-.5,1.8-.5s.8,0,1.2.2c.4.2.8.4,1.1.7.3.3.6.7.8,1.2.2.5.3,1.1.3,1.7v.5h-6.2v-.8h5.2c0-.5-.1-1-.3-1.4s-.5-.7-.8-1-.8-.4-1.3-.4-.9.1-1.3.4c-.4.3-.7.6-.9,1.1-.2.4-.3.9-.3,1.4v.5c0,.6.1,1.2.3,1.6.2.5.5.8.9,1.1.4.3.9.4,1.4.4s.7,0,1-.2.5-.3.7-.5.3-.4.4-.7l.9.3c-.1.3-.3.6-.6.9-.3.3-.6.5-1,.7-.4.2-.9.3-1.4.3ZM162.8,207.4v4.9h-.9v-7.9h.9v1.2h0c.2-.4.5-.7.9-1s.9-.4,1.5-.4,1,.1,1.4.3.7.5.9,1,.3,1,.3,1.6v5.1h-.9v-5.1c0-.6-.2-1.2-.5-1.5-.4-.4-.8-.6-1.5-.6s-.8,0-1.1.3-.6.4-.8.8c-.2.3-.3.7-.3,1.2ZM173.4,204.5v.8h-3.8v-.8h3.8ZM170.8,202.6h.9v7.7c0,.3,0,.6.2.8.1.2.3.3.4.4.2,0,.4.1.6.1s.2,0,.3,0c0,0,.2,0,.2,0l.2.8c0,0-.2,0-.3,0s-.3,0-.5,0c-.3,0-.7,0-1-.2-.3-.1-.6-.4-.8-.7s-.3-.7-.3-1.1v-7.9ZM187,205.1c0-.4-.2-.7-.4-1-.2-.3-.4-.6-.7-.8-.3-.2-.6-.4-.9-.5-.4-.1-.7-.2-1.2-.2-.7,0-1.3.2-1.8.5-.5.4-1,.9-1.3,1.5s-.5,1.5-.5,2.4.2,1.8.5,2.4c.3.7.7,1.2,1.3,1.5.6.4,1.2.5,1.9.5s1.2-.1,1.7-.4c.5-.3.9-.7,1.2-1.2s.4-1.2.4-1.9h.3c0,0-3.4,0-3.4,0v-.9h4v.9c0,.9-.2,1.7-.5,2.3-.4.7-.9,1.2-1.5,1.5-.6.4-1.4.5-2.2.5s-1.7-.2-2.4-.7c-.7-.4-1.2-1.1-1.6-1.9-.4-.8-.6-1.8-.6-2.9s.1-1.6.3-2.2c.2-.7.5-1.2.9-1.7.4-.5.9-.8,1.4-1.1.6-.3,1.2-.4,1.8-.4s1.1,0,1.6.3c.5.2.9.4,1.3.7.4.3.7.7.9,1.1.2.4.4.9.5,1.3h-1ZM193.5,212.5c-.7,0-1.4-.2-1.9-.5-.5-.3-1-.8-1.2-1.4-.3-.6-.4-1.3-.4-2.1s.1-1.5.4-2.1.7-1.1,1.2-1.5c.5-.4,1.1-.5,1.8-.5s.8,0,1.2.2c.4.2.8.4,1.1.7.3.3.6.7.8,1.2.2.5.3,1.1.3,1.7v.5h-6.2v-.8h5.2c0-.5-.1-1-.3-1.4s-.5-.7-.8-1-.8-.4-1.3-.4-.9.1-1.3.4c-.4.3-.7.6-.9,1.1-.2.4-.3.9-.3,1.4v.5c0,.6.1,1.2.3,1.6.2.5.5.8.9,1.1.4.3.9.4,1.4.4s.7,0,1-.2.5-.3.7-.5.3-.4.4-.7l.9.3c-.1.3-.3.6-.6.9-.3.3-.6.5-1,.7-.4.2-.9.3-1.4.3ZM199.6,207.4v4.9h-.9v-7.9h.9v1.2h0c.2-.4.5-.7.9-1s.9-.4,1.5-.4,1,.1,1.4.3.7.5.9,1,.3,1,.3,1.6v5.1h-.9v-5.1c0-.6-.2-1.2-.5-1.5-.4-.4-.8-.6-1.5-.6s-.8,0-1.1.3-.6.4-.8.8c-.2.3-.3.7-.3,1.2ZM210.3,212.5c-.7,0-1.4-.2-1.9-.5-.5-.3-1-.8-1.2-1.4-.3-.6-.4-1.3-.4-2.1s.1-1.5.4-2.1.7-1.1,1.2-1.5c.5-.4,1.1-.5,1.8-.5s.8,0,1.2.2c.4.2.8.4,1.1.7.3.3.6.7.8,1.2.2.5.3,1.1.3,1.7v.5h-6.2v-.8h5.2c0-.5-.1-1-.3-1.4s-.5-.7-.8-1-.8-.4-1.3-.4-.9.1-1.3.4c-.4.3-.7.6-.9,1.1-.2.4-.3.9-.3,1.4v.5c0,.6.1,1.2.3,1.6.2.5.5.8.9,1.1.4.3.9.4,1.4.4s.7,0,1-.2.5-.3.7-.5.3-.4.4-.7l.9.3c-.1.3-.3.6-.6.9-.3.3-.6.5-1,.7-.4.2-.9.3-1.4.3ZM215.5,212.4v-7.9h.9v1.2h0c.2-.4.4-.7.8-1,.4-.2.8-.4,1.3-.4s.2,0,.3,0,.2,0,.2,0v.9s-.1,0-.2,0c-.1,0-.2,0-.3,0-.4,0-.8,0-1.1.3-.3.2-.6.4-.8.7-.2.3-.3.7-.3,1v5.1h-.9ZM222.9,212.5c-.5,0-.9,0-1.3-.3-.4-.2-.7-.5-.9-.8-.2-.4-.4-.8-.4-1.3s0-.7.2-1c.1-.3.4-.5.6-.7s.6-.3,1-.4c.4,0,.8-.2,1.2-.2.4,0,.8-.1,1.1-.1.3,0,.5-.1.7-.2.2,0,.2-.2.2-.4v-.2c0-.5-.2-1-.5-1.3-.3-.3-.8-.5-1.4-.5s-1,.1-1.4.4c-.4.3-.6.5-.8.9l-.9-.3c.2-.4.4-.8.7-1s.7-.4,1.1-.6c.4-.1.8-.2,1.2-.2s.6,0,.9.1.6.2.9.4c.3.2.5.5.7.8.2.3.3.8.3,1.3v5.4h-.9v-1.3h0c-.1.2-.3.5-.5.7s-.5.4-.8.5c-.3.1-.7.2-1.1.2ZM223,211.7c.5,0,.9-.1,1.3-.3.4-.2.6-.5.8-.9.2-.4.3-.8.3-1.2v-1.1c0,0-.2.1-.3.2-.2,0-.3,0-.6.1-.2,0-.4,0-.6.1s-.4,0-.6,0c-.4,0-.8.1-1.1.3s-.6.3-.7.5c-.2.2-.3.5-.3.8,0,.5.2.9.5,1.1.3.3.8.4,1.3.4ZM231.8,204.5v.8h-3.8v-.8h3.8ZM229.2,202.6h.9v7.7c0,.3,0,.6.2.8.1.2.3.3.4.4.2,0,.4.1.6.1s.2,0,.3,0c0,0,.2,0,.2,0l.2.8c0,0-.2,0-.3,0s-.3,0-.5,0c-.3,0-.7,0-1-.2-.3-.1-.6-.4-.8-.7s-.3-.7-.3-1.1v-7.9ZM236.9,212.5c-.7,0-1.3-.2-1.8-.5-.5-.3-.9-.8-1.2-1.4-.3-.6-.4-1.3-.4-2.1s.1-1.5.4-2.1.7-1.1,1.2-1.4c.5-.3,1.1-.5,1.8-.5s1.3.2,1.8.5c.5.3.9.8,1.2,1.4.3.6.4,1.3.4,2.1s-.1,1.5-.4,2.1c-.3.6-.7,1.1-1.2,1.4-.5.3-1.1.5-1.8.5ZM236.9,211.7c.5,0,1-.1,1.4-.4.4-.3.7-.7.9-1.2s.3-1,.3-1.6,0-1.1-.3-1.6c-.2-.5-.5-.9-.9-1.2-.4-.3-.8-.4-1.4-.4s-1,.1-1.4.4c-.4.3-.7.7-.9,1.2-.2.5-.3,1-.3,1.6s0,1.1.3,1.6.5.9.9,1.2c.4.3.8.4,1.4.4ZM242.4,212.4v-7.9h.9v1.2h0c.2-.4.4-.7.8-1,.4-.2.8-.4,1.3-.4s.2,0,.3,0,.2,0,.2,0v.9s-.1,0-.2,0c-.1,0-.2,0-.3,0-.4,0-.8,0-1.1.3-.3.2-.6.4-.8.7-.2.3-.3.7-.3,1v5.1h-.9Z"/>
</svg>