<?xml version="1.0" encoding="UTF-8"?>
<svg width="20" height="20" viewBox="0 0 1200 1200" xmlns="http://www.w3.org/2000/svg" class="dashicon">
  <path fill="currentColor" d="m124.22 56.25c-37.32 0-67.969 30.648-67.969 67.969v381.19c0 37.32 30.648 67.969 67.969 67.969h381.19c37.32 0 67.934-30.648 67.934-67.969v-381.19c0-37.32-30.613-67.969-67.934-67.969zm570.38 0c-37.32 0-67.934 30.648-67.934 67.969v381.19c0 37.32 30.613 67.969 67.934 67.969h381.19c37.32 0 67.969-30.648 67.969-67.969v-381.19c0-37.32-30.648-67.969-67.969-67.969zm-570.38 37.535h381.19c17.195 0 30.434 13.238 30.434 30.434v167.61l-40.977-48.852c-11.598-13.82-28-21.832-44.824-22.008-16.824-0.17578-33.883 7.9648-44.973 22.852l-110.16 147.95-65.66-78.332c-10.938-13.043-26.5-20.508-42.336-20.508-15.832 0-31.43 7.4648-42.371 20.508l-50.793 60.57v-249.79c0-17.195 13.273-30.434 30.469-30.434zm570.38 0h381.19c17.195 0 30.469 13.238 30.469 30.434v381.19c0 17.195-13.273 30.434-30.469 30.434h-381.19c-17.195 0-30.434-13.238-30.434-30.434v-381.19c0-17.195 13.238-30.434 30.434-30.434zm119.68 96.129v0.003907c-3.3555-0.12109-6.6836 0.66406-9.6328 2.2695-2.9453 1.625-5.4023 4.0117-7.1094 6.9102-1.707 2.8984-2.6016 6.2031-2.5938 9.5703v212.44c0.042968 4.4805 1.6914 8.7969 4.6406 12.172 2.9531 3.3711 7.0117 5.5742 11.449 6.2109 4.4336 0.63281 8.9531-0.33984 12.73-2.7461l164.98-106.16h0.003906c5.3086-3.4609 8.5117-9.3711 8.5117-15.711 0-6.3398-3.2031-12.25-8.5117-15.711l-164.98-106.27h-0.003906c-2.8359-1.8242-6.1133-2.8477-9.4844-2.9648zm18.203 53.062 111.7 71.961-111.7 71.852zm-382.88 15.492c5.3008 0.054688 11.348 2.4922 16.48 8.6055l69.762 83.168v155.16c0 17.195-13.238 30.434-30.434 30.434h-271.14l200.83-269.61c4.457-5.9844 9.1953-7.8203 14.5-7.7617zm-263.52 71.996c0.28516-0.011719 0.56641 0 0.84375 0 4.4062 0 8.9805 1.5781 13.551 7.0312l71.445 85.145-84.266 113.2h-63.43c-17.195 0-30.469-13.238-30.469-30.434v-72.949l79.613-94.957c4.2891-5.1094 8.5547-6.8359 12.707-7.0312zm-61.852 296.19c-37.32 0-67.969 30.613-67.969 67.934v381.34c0 37.32 30.648 67.824 67.969 67.824h381.19c37.32 0 67.934-30.504 67.934-67.824l-0.003906-381.33c0-37.32-30.613-67.934-67.934-67.934zm570.38 0c-37.32 0-67.934 30.613-67.934 67.934v381.34c0 37.32 30.613 67.824 67.934 67.824h381.19c37.32 0 67.969-30.504 67.969-67.824l-0.003906-381.33c0-37.32-30.648-67.934-67.969-67.934zm-570.38 37.5h381.19c17.195 0 30.434 13.238 30.434 30.434v381.34c0 17.195-13.238 30.469-30.434 30.469h-381.19c-17.195 0-30.469-13.273-30.469-30.469l-0.003906-381.33c0-17.195 13.273-30.434 30.469-30.434zm570.38 0h381.19c17.195 0 30.469 13.238 30.469 30.434v381.34c0 17.195-13.273 30.469-30.469 30.469h-381.19c-17.195 0-30.434-13.273-30.434-30.469v-381.33c0-17.195 13.238-30.434 30.434-30.434zm266.71 73.102c-18.434 0.007813-36.832 7.0586-50.793 21.02l-18.531 18.566-129.02 128.98c-2.5117 2.5469-4.2383 5.7617-4.9844 9.2617l-20.324 95.508v0.003906c-1.3281 6.1914 0.55859 12.641 5.0195 17.141 4.4648 4.4961 10.895 6.4375 17.102 5.1602l95.508-20.363c3.5703-0.75391 6.8398-2.5391 9.4102-5.125l128.87-128.87c0.19141-0.19141 0.38281-0.38672 0.56641-0.58594l18.09-18.09c27.926-27.926 27.934-73.652 0-101.59-13.965-13.969-32.508-21.027-50.941-21.02zm-777.43 16.586c-5-0.019531-9.7969 1.957-13.332 5.4922-3.5352 3.5352-5.5117 8.3359-5.4922 13.332 0.019531 4.9727 2.0156 9.7344 5.543 13.238 3.5312 3.5 8.3086 5.457 13.281 5.4375h261.88-0.003906c4.9492-0.019531 9.6875-1.9922 13.188-5.4883 3.4961-3.5 5.4727-8.2383 5.4922-13.188 0.019531-4.9727-1.9375-9.75-5.4414-13.277-3.5039-3.5312-8.2656-5.5273-13.238-5.5469zm777.5 20.617c8.7227 0 17.477 3.4102 24.316 10.254 13.688 13.688 13.695 34.902 0 48.598l-5.3867 5.3828-48.633-48.559 5.4219-5.418c6.8438-6.8477 15.555-10.254 24.281-10.254zm-56.176 42.152 48.523 48.668-111.7 111.7-61.742 13.148 13.145-61.742zm-721.32 49.914h-0.003906c-4.9727-0.019532-9.75 1.9375-13.281 5.4414-3.5273 3.5039-5.5234 8.2617-5.543 13.238-0.019531 4.9961 1.957 9.7969 5.4922 13.328 3.5352 3.5352 8.332 5.5117 13.332 5.4922h261.88-0.003906c4.9727-0.019532 9.7344-2.0117 13.238-5.543 3.5039-3.5312 5.4609-8.3047 5.4414-13.277-0.019532-4.9492-1.9961-9.6875-5.4922-13.188-3.5-3.4961-8.2383-5.4727-13.188-5.4922zm0 112.64-0.003906 0.003906c-4.9727-0.019531-9.75 1.9375-13.281 5.4375-3.5273 3.5039-5.5234 8.2656-5.543 13.238-0.019531 5 1.957 9.7969 5.4922 13.332 3.5352 3.5352 8.332 5.5117 13.332 5.4922h261.88-0.003906c4.9727-0.019531 9.7344-2.0156 13.238-5.543 3.5039-3.5312 5.4609-8.3086 5.4414-13.281-0.019532-4.9492-1.9961-9.6875-5.4922-13.184-3.5-3.5-8.2383-5.4727-13.188-5.4922z"/>
</svg>
